<?xml version="1.0" encoding="UTF-8"?>
<svg id="Ebene_2" data-name="Ebene 2" xmlns="http://www.w3.org/2000/svg" viewBox="0 0 94.48 94.48">
  <defs>
    <style>
      .cls-1 {
        fill: #738ec2;
      }

      .cls-2 {
        fill: none;
        stroke: #738ec2;
        stroke-miterlimit: 10;
        stroke-width: 4px;
      }
    </style>
  </defs>
  <g id="Ebene_1-2" data-name="Ebene 1">
    <path class="cls-1" d="M25.26,30.39h8.88v1.21c-1.57,7.03-4.11,13.46-7.62,19.31-3.52,5.84-8,11.01-13.46,15.51l-.91-.83c2.28-3.13,4.27-6.64,5.99-10.51,1.72-3.87,3.16-7.91,4.32-12.14,1.16-4.22,2.1-8.41,2.81-12.55ZM13.19,30.39h22.07l4.17-5.77c1.72,1.47,3.16,2.72,4.32,3.75,1.16,1.04,2.17,2.01,3.03,2.92-.15.81-.81,1.21-1.97,1.21H13.8l-.61-2.12ZM25.56,11.73l11.45,1.14c-.1.56-.34,1.01-.72,1.37-.38.35-1.07.61-2.09.76v65.16c0,.25-.35.58-1.06.99-.71.4-1.58.77-2.62,1.1-1.04.33-2.11.49-3.22.49h-1.74V11.73ZM34.13,37.22c3.19,1.06,5.66,2.3,7.43,3.72,1.77,1.42,2.98,2.84,3.64,4.29.66,1.44.88,2.74.68,3.91-.2,1.16-.7,2.1-1.48,2.81-.78.71-1.74,1.05-2.88,1.02-1.14-.03-2.29-.59-3.45-1.71,0-1.52-.24-3.1-.72-4.74-.48-1.64-1.07-3.22-1.78-4.74-.71-1.52-1.44-2.88-2.2-4.1l.76-.46ZM55.98,30.39h9.18v1.21c-1.97,8.14-5.2,15.53-9.67,22.15s-10.28,12.31-17.41,17.07l-.91-.83c3.29-3.39,6.17-7.23,8.65-11.53,2.48-4.3,4.56-8.85,6.26-13.65,1.69-4.8,3-9.61,3.91-14.41ZM45.74,30.39h26.09l4.4-5.99c1.06.86,2.01,1.64,2.84,2.35.83.71,1.69,1.47,2.58,2.28.88.81,1.71,1.57,2.47,2.28-.2.81-.89,1.21-2.05,1.21h-35.73l-.61-2.12ZM57.65,11.81l11.45,1.14c-.1.51-.34.96-.72,1.37-.38.41-1.08.68-2.09.83v64.4c0,.3-.37.71-1.1,1.21-.73.5-1.63.95-2.69,1.33-1.06.38-2.12.57-3.19.57h-1.67V11.81ZM67.35,30.7c1.01,4,2.4,7.78,4.17,11.34,1.77,3.56,3.84,6.73,6.22,9.48,2.38,2.76,4.93,4.97,7.66,6.64l-.08.83c-1.97,1.42-3.46,3.05-4.48,4.89-1.01,1.85-1.67,3.96-1.97,6.33-2.43-2.83-4.48-6.33-6.14-10.51-1.67-4.17-3.02-8.71-4.06-13.62-1.04-4.9-1.88-9.83-2.54-14.79l1.21-.61Z"/>
    <circle class="cls-2" cx="47.24" cy="47.24" r="45.24"/>
  </g>
</svg>