<?xml version="1.0" encoding="UTF-8"?>
<svg id="Ebene_2" data-name="Ebene 2" xmlns="http://www.w3.org/2000/svg" viewBox="0 0 225.51 94.48">
  <defs>
    <style>
      .cls-1 {
        fill: #fff;
      }

      .cls-2 {
        fill: none;
        stroke: #fff;
        stroke-miterlimit: 10;
        stroke-width: 4px;
      }
    </style>
  </defs>
  <g id="Ebene_1-2" data-name="Ebene 1">
    <g>
      <path class="cls-1" d="M104.85,34.74v-1.47l3.01-.96c.2-.06.37-.17.52-.32.15-.15.22-.37.22-.66V10.06c0-.27-.07-.48-.21-.63-.14-.14-.32-.25-.54-.31l-3.01-1v-1.43h11.65v1.43l-3.03,1c-.21.07-.39.17-.54.32s-.22.35-.22.62v22.29h10.09c.22,0,.41-.07.57-.23.16-.15.25-.35.29-.6l.86-5.75h2.37v8.96h-22.04Z"/>
      <path class="cls-1" d="M130.41,34.74v-1.47l3.17-.96c.23-.08.42-.19.55-.33s.2-.36.2-.65V10.06c0-.27-.07-.48-.21-.63-.14-.14-.32-.25-.53-.31l-3.17-1v-1.43h11.93v1.43l-3.15,1c-.21.07-.39.17-.54.32-.15.15-.23.35-.23.62v21.28c0,.29.07.51.23.66.15.15.33.26.54.32l3.15.96v1.47h-11.93Z"/>
      <path class="cls-1" d="M146.68,34.74v-1.47l3.01-1.1c.22-.08.4-.19.54-.33.14-.14.21-.35.21-.63V10.08c0-.27-.07-.48-.21-.63-.14-.14-.32-.25-.53-.31l-3.13-1.02v-1.43h8.04l13.57,19.34,1.51,2.52h.31V10.16c0-.27-.08-.47-.23-.6-.16-.12-.34-.23-.55-.3l-2.97-1.13v-1.43h10.11v1.43l-2.99,1.13c-.17.07-.34.17-.51.3s-.25.34-.25.6v20.24l-.59,4.54h-2.33l-14.76-20.96-1.51-2.56h-.31v19.81c0,.29.08.5.23.65.16.14.33.25.51.31l2.95,1.1v1.47h-10.11Z"/>
      <path class="cls-1" d="M184.05,16.81c-1.24,0-2.12-.4-2.64-1.19-.52-.79-.78-1.84-.78-3.15s.33-2.39,1-3.38,1.44-1.85,2.34-2.58c.89-.73,1.68-1.34,2.36-1.82l1.23,1.39c-1,.8-1.87,1.6-2.59,2.42-.72.82-1.2,1.68-1.42,2.56.72.5,1.29.9,1.73,1.2.44.31.76.63.96.96.2.33.3.78.3,1.34,0,.3-.1.63-.29.98-.2.35-.48.65-.85.9-.37.25-.82.37-1.34.37Z"/>
      <path class="cls-1" d="M192.38,33.62l-.12-7.49h2.31l.82,4.05c.04.18.16.37.36.55s.37.33.52.43c.5.31,1.04.61,1.62.9.59.29,1.21.52,1.87.69.66.18,1.33.26,2.02.26,2.03,0,3.63-.44,4.79-1.33,1.16-.89,1.74-2.1,1.74-3.64,0-1.16-.35-2.12-1.04-2.87-.69-.76-1.62-1.38-2.78-1.86-1.12-.47-2.23-.87-3.31-1.2-1.09-.33-2.15-.71-3.2-1.14-1.58-.65-2.82-1.57-3.72-2.76-.9-1.19-1.35-2.62-1.35-4.3,0-1.51.42-2.86,1.26-4.04s1.98-2.11,3.41-2.8c1.43-.68,3.04-1.03,4.81-1.03,1.07,0,2.09.07,3.06.2.97.13,1.9.29,2.78.49.88.2,1.72.39,2.51.59v7.18h-2.29l-.78-3.83c-.04-.18-.16-.36-.35-.54-.2-.18-.37-.32-.53-.42-.3-.22-.67-.43-1.11-.62s-.92-.34-1.46-.46c-.53-.12-1.11-.18-1.72-.18-1.85,0-3.29.39-4.31,1.17s-1.53,1.74-1.53,2.87c0,1.02.28,1.97.83,2.85.55.88,1.62,1.61,3.2,2.2,1.04.38,2.07.74,3.07,1.08,1,.34,2.1.76,3.29,1.25.87.37,1.71.84,2.51,1.43.8.59,1.46,1.34,1.98,2.26.51.92.77,2.06.77,3.43s-.37,2.77-1.12,4.06-1.92,2.33-3.52,3.14c-1.6.81-3.7,1.21-6.3,1.21-.9,0-1.85-.09-2.86-.27s-2.03-.41-3.07-.68c-1.04-.27-2.07-.55-3.09-.82Z"/>
      <path class="cls-1" d="M118.27,88.18c-2.89,0-5.35-.6-7.36-1.8-2.01-1.2-3.55-2.9-4.6-5.09-1.05-2.2-1.57-4.8-1.57-7.81,0-2.84.54-5.36,1.62-7.56,1.08-2.2,2.64-3.92,4.66-5.18s4.46-1.89,7.28-1.89c3.08,0,5.61.64,7.61,1.93s3.48,3.03,4.45,5.23,1.46,4.69,1.46,7.47c0,1.85-.26,3.65-.78,5.41-.52,1.75-1.33,3.33-2.42,4.73-1.09,1.4-2.49,2.51-4.2,3.33s-3.76,1.23-6.15,1.23ZM118.62,85.88c1.92,0,3.52-.5,4.81-1.49,1.29-.99,2.26-2.37,2.9-4.14.65-1.77.97-3.8.97-6.11,0-2.66-.34-4.96-1.03-6.9-.68-1.94-1.72-3.44-3.11-4.5-1.39-1.06-3.15-1.58-5.27-1.58s-3.69.53-4.96,1.58c-1.27,1.06-2.2,2.46-2.8,4.22s-.89,3.7-.89,5.81c0,2.62.34,4.91,1.01,6.87s1.7,3.49,3.09,4.59c1.39,1.09,3.15,1.64,5.27,1.64Z"/>
      <path class="cls-1" d="M133.66,87.54v-1.47l1.99-.88c.48-.22.81-.58,1-1.08l7.96-20.38,2.31-4.67h2.21l9.88,25.11c.09.21.22.42.38.64.16.21.35.36.56.44l2.07.82v1.47h-10.36v-1.47l3.29-1.13-7-17.93-.76-2.64h-.33l-7.72,20.47,3.32,1.23v1.47h-8.78ZM141.48,77.7l.96-2.72h9.02l.96,2.72h-10.93Z"/>
      <path class="cls-1" d="M164.56,86.42l-.12-7.49h2.31l.82,4.05c.04.18.16.37.36.55s.37.33.52.43c.5.31,1.04.61,1.62.9.59.29,1.21.52,1.87.69.66.18,1.33.26,2.02.26,2.03,0,3.63-.44,4.79-1.33,1.16-.89,1.74-2.1,1.74-3.64,0-1.16-.35-2.12-1.04-2.87s-1.62-1.38-2.78-1.86c-1.12-.47-2.23-.87-3.31-1.2-1.09-.33-2.15-.71-3.2-1.14-1.58-.65-2.82-1.57-3.72-2.76-.9-1.19-1.35-2.62-1.35-4.3,0-1.51.42-2.86,1.26-4.04.84-1.18,1.98-2.11,3.41-2.8,1.43-.68,3.04-1.03,4.81-1.03,1.07,0,2.09.07,3.06.2.97.13,1.9.29,2.78.49.88.2,1.72.39,2.51.59v7.18h-2.29l-.78-3.83c-.04-.18-.16-.36-.35-.54-.2-.18-.37-.32-.53-.42-.3-.22-.67-.43-1.1-.62-.44-.19-.92-.34-1.46-.46-.53-.12-1.11-.18-1.72-.18-1.85,0-3.29.39-4.31,1.17s-1.53,1.74-1.53,2.88c0,1.02.28,1.96.83,2.84.55.88,1.62,1.61,3.2,2.2,1.04.38,2.07.74,3.07,1.08,1,.34,2.1.76,3.29,1.25.87.37,1.71.84,2.51,1.43s1.46,1.34,1.98,2.26.77,2.06.77,3.43-.37,2.77-1.11,4.06c-.74,1.28-1.92,2.33-3.52,3.14-1.6.81-3.7,1.21-6.3,1.21-.9,0-1.85-.09-2.86-.27s-2.03-.41-3.07-.68c-1.04-.27-2.07-.55-3.09-.82Z"/>
      <path class="cls-1" d="M188.88,87.54v-1.47l3.17-.96c.23-.08.42-.19.55-.33.13-.14.2-.36.2-.64v-21.28c0-.27-.07-.48-.21-.63-.14-.14-.32-.25-.53-.31l-3.17-1v-1.43h11.93v1.43l-3.15,1c-.21.07-.39.17-.54.32-.15.15-.23.36-.23.62v21.28c0,.29.07.5.23.66s.33.26.54.32l3.15.96v1.47h-11.93Z"/>
      <path class="cls-1" d="M205.56,86.42l-.12-7.49h2.31l.82,4.05c.04.18.16.37.36.55.2.18.37.33.52.43.49.31,1.04.61,1.62.9.59.29,1.21.52,1.87.69.66.18,1.33.26,2.02.26,2.04,0,3.63-.44,4.79-1.33s1.74-2.1,1.74-3.64c0-1.16-.35-2.12-1.04-2.87s-1.62-1.38-2.78-1.86c-1.12-.47-2.23-.87-3.31-1.2s-2.15-.71-3.2-1.14c-1.58-.65-2.82-1.57-3.71-2.76-.9-1.19-1.35-2.62-1.35-4.3,0-1.51.42-2.86,1.26-4.04.84-1.18,1.98-2.11,3.41-2.8,1.43-.68,3.04-1.03,4.81-1.03,1.07,0,2.09.07,3.06.2.97.13,1.9.29,2.78.49.88.2,1.72.39,2.51.59v7.18h-2.29l-.78-3.83c-.04-.18-.16-.36-.35-.54-.2-.18-.37-.32-.53-.42-.3-.22-.67-.43-1.11-.62-.44-.19-.92-.34-1.46-.46s-1.11-.18-1.72-.18c-1.85,0-3.29.39-4.31,1.17s-1.54,1.74-1.54,2.88c0,1.02.28,1.96.83,2.84.55.88,1.62,1.61,3.2,2.2,1.04.38,2.07.74,3.07,1.08,1,.34,2.1.76,3.29,1.25.87.37,1.71.84,2.51,1.43.8.59,1.46,1.34,1.98,2.26.51.92.77,2.06.77,3.43s-.37,2.77-1.12,4.06c-.74,1.28-1.92,2.33-3.52,3.14-1.6.81-3.7,1.21-6.3,1.21-.9,0-1.85-.09-2.86-.27s-2.03-.41-3.07-.68c-1.04-.27-2.07-.55-3.09-.82Z"/>
    </g>
    <path class="cls-1" d="M25.26,30.39h8.88v1.21c-1.57,7.03-4.11,13.46-7.62,19.31-3.52,5.84-8,11.01-13.46,15.51l-.91-.83c2.28-3.13,4.27-6.64,5.99-10.51,1.72-3.87,3.16-7.91,4.32-12.14,1.16-4.22,2.1-8.41,2.81-12.55ZM13.19,30.39h22.07l4.17-5.77c1.72,1.47,3.16,2.72,4.32,3.75,1.16,1.04,2.17,2.01,3.03,2.92-.15.81-.81,1.21-1.97,1.21H13.8l-.61-2.12ZM25.56,11.73l11.45,1.14c-.1.56-.34,1.01-.72,1.37-.38.35-1.07.61-2.09.76v65.16c0,.25-.35.58-1.06.99-.71.4-1.58.77-2.62,1.1-1.04.33-2.11.49-3.22.49h-1.74V11.73ZM34.13,37.22c3.19,1.06,5.66,2.3,7.43,3.72,1.77,1.42,2.98,2.84,3.64,4.29.66,1.44.88,2.74.68,3.91-.2,1.16-.7,2.1-1.48,2.81-.78.71-1.74,1.05-2.88,1.02-1.14-.03-2.29-.59-3.45-1.71,0-1.52-.24-3.1-.72-4.74-.48-1.64-1.07-3.22-1.78-4.74-.71-1.52-1.44-2.88-2.2-4.1l.76-.46ZM55.98,30.39h9.18v1.21c-1.97,8.14-5.2,15.53-9.67,22.15s-10.28,12.31-17.41,17.07l-.91-.83c3.29-3.39,6.17-7.23,8.65-11.53,2.48-4.3,4.56-8.85,6.26-13.65,1.69-4.8,3-9.61,3.91-14.41ZM45.74,30.39h26.09l4.4-5.99c1.06.86,2.01,1.64,2.84,2.35.83.71,1.69,1.47,2.58,2.28.88.81,1.71,1.57,2.47,2.28-.2.81-.89,1.21-2.05,1.21h-35.73l-.61-2.12ZM57.65,11.81l11.45,1.14c-.1.51-.34.96-.72,1.37-.38.41-1.08.68-2.09.83v64.4c0,.3-.37.71-1.1,1.21-.73.5-1.63.95-2.69,1.33-1.06.38-2.12.57-3.19.57h-1.67V11.81ZM67.35,30.7c1.01,4,2.4,7.78,4.17,11.34,1.77,3.56,3.84,6.73,6.22,9.48,2.38,2.76,4.93,4.97,7.66,6.64l-.08.83c-1.97,1.42-3.46,3.05-4.48,4.89-1.01,1.85-1.67,3.96-1.97,6.33-2.43-2.83-4.48-6.33-6.14-10.51-1.67-4.17-3.02-8.71-4.06-13.62-1.04-4.9-1.88-9.83-2.54-14.79l1.21-.61Z"/>
    <circle class="cls-2" cx="47.24" cy="47.24" r="45.24"/>
  </g>
</svg>